<svg version="1.1" viewBox="0.0 0.0 336.0 140.16010498687663" fill="none" stroke="none" stroke-linecap="square" stroke-miterlimit="10" xmlns:xlink="http://www.w3.org/1999/xlink" xmlns="http://www.w3.org/2000/svg"><clipPath id="g280fde26209_1_24.0"><path d="m0 0l336.0 0l0 140.16011l-336.0 0l0 -140.16011z" clip-rule="nonzero"/></clipPath><g clip-path="url(#g280fde26209_1_24.0)"><path fill="#000000" fill-opacity="0.0" d="m0 0l336.0 0l0 140.16011l-336.0 0z" fill-rule="evenodd"/><g filter="url(#shadowFilter-g280fde26209_1_24.1)"><use xlink:href="#g280fde26209_1_24.1" transform="matrix(1.0 0.0 0.0 1.0 4.330127034120736 2.5)"/></g><defs><filter id="shadowFilter-g280fde26209_1_24.1" filterUnits="userSpaceOnUse"><feGaussianBlur in="SourceAlpha" stdDeviation="2.5" result="blur"/><feComponentTransfer in="blur" color-interpolation-filters="sRGB"><feFuncR type="linear" slope="0" intercept="0.6"/><feFuncG type="linear" slope="0" intercept="0.6"/><feFuncB type="linear" slope="0" intercept="0.6"/><feFuncA type="linear" slope="0.3" intercept="0"/></feComponentTransfer></filter></defs><g id="g280fde26209_1_24.1"><path fill="#999999" d="m3.6196232 100.2889l0 0c0 -1.8119965 1.4689112 -3.2809067 3.2809052 -3.2809067l13.123228 0l0 0c0.8701515 0 1.7046623 0.34566498 2.319952 0.9609604c0.6152878 0.6152878 0.96095467 1.4497986 0.96095467 2.3199463l0 31.831886c0 1.8119965 -1.4689121 3.2809143 -3.2809067 3.2809143l-13.123228 0c-1.8119941 0 -3.2809052 -1.4689178 -3.2809052 -3.2809143z" fill-rule="evenodd"/></g><g filter="url(#shadowFilter-g280fde26209_1_24.2)"><use xlink:href="#g280fde26209_1_24.2" transform="matrix(1.0 0.0 0.0 1.0 4.330127034120733 2.5)"/></g><defs><filter id="shadowFilter-g280fde26209_1_24.2" filterUnits="userSpaceOnUse"><feGaussianBlur in="SourceAlpha" stdDeviation="2.5" result="blur"/><feComponentTransfer in="blur" color-interpolation-filters="sRGB"><feFuncR type="linear" slope="0" intercept="0.6"/><feFuncG type="linear" slope="0" intercept="0.6"/><feFuncB type="linear" slope="0" intercept="0.6"/><feFuncA type="linear" slope="0.3" intercept="0"/></feComponentTransfer></filter></defs><g id="g280fde26209_1_24.2"><path fill="#999999" d="m75.60665 100.2889l0 0c0 -1.8119965 1.4689102 -3.2809067 3.2809067 -3.2809067l13.12323 0l0 0c0.8701477 0 1.7046585 0.34566498 2.3199463 0.9609604c0.6152954 0.6152878 0.9609604 1.4497986 0.9609604 2.3199463l0 31.831886c0 1.8119965 -1.4689102 3.2809143 -3.2809067 3.2809143l-13.12323 0c-1.8119965 0 -3.2809067 -1.4689178 -3.2809067 -3.2809143z" fill-rule="evenodd"/></g><g filter="url(#shadowFilter-g280fde26209_1_24.3)"><use xlink:href="#g280fde26209_1_24.3" transform="matrix(1.0 0.0 0.0 1.0 4.330127034120733 2.5)"/></g><defs><filter id="shadowFilter-g280fde26209_1_24.3" filterUnits="userSpaceOnUse"><feGaussianBlur in="SourceAlpha" stdDeviation="2.5" result="blur"/><feComponentTransfer in="blur" color-interpolation-filters="sRGB"><feFuncR type="linear" slope="0" intercept="0.6"/><feFuncG type="linear" slope="0" intercept="0.6"/><feFuncB type="linear" slope="0" intercept="0.6"/><feFuncA type="linear" slope="0.3" intercept="0"/></feComponentTransfer></filter></defs><g id="g280fde26209_1_24.3"><path fill="#999999" d="m27.235716 82.1971l0 0c0 -1.8119965 1.4689121 -3.2809067 3.2809067 -3.2809067l13.123228 0l0 0c0.8701515 0 1.7046623 0.34566498 2.31995 0.96095276c0.6152878 0.6152954 0.9609566 1.4498062 0.9609566 2.319954l0 31.800392c0 1.8119965 -1.468914 3.2809067 -3.2809067 3.2809067l-13.123228 0c-1.8119946 0 -3.2809067 -1.4689102 -3.2809067 -3.2809067z" fill-rule="evenodd"/></g><g filter="url(#shadowFilter-g280fde26209_1_24.4)"><use xlink:href="#g280fde26209_1_24.4" transform="matrix(1.0 0.0 0.0 1.0 4.330127034120733 2.5)"/></g><defs><filter id="shadowFilter-g280fde26209_1_24.4" filterUnits="userSpaceOnUse"><feGaussianBlur in="SourceAlpha" stdDeviation="2.5" result="blur"/><feComponentTransfer in="blur" color-interpolation-filters="sRGB"><feFuncR type="linear" slope="0" intercept="0.6"/><feFuncG type="linear" slope="0" intercept="0.6"/><feFuncB type="linear" slope="0" intercept="0.6"/><feFuncA type="linear" slope="0.3" intercept="0"/></feComponentTransfer></filter></defs><g id="g280fde26209_1_24.4"><path fill="#999999" d="m51.142967 82.1971l0 0c0 -1.8119965 1.4689102 -3.2809067 3.2809067 -3.2809067l13.12323 0l0 0c0.8701477 0 1.7046585 0.34566498 2.3199463 0.96095276c0.6152878 0.6152954 0.9609604 1.4498062 0.9609604 2.319954l0 31.800392c0 1.8119965 -1.4689178 3.2809067 -3.2809067 3.2809067l-13.12323 0c-1.8119965 0 -3.2809067 -1.4689102 -3.2809067 -3.2809067z" fill-rule="evenodd"/></g><g filter="url(#shadowFilter-g280fde26209_1_24.5)"><use xlink:href="#g280fde26209_1_24.5" transform="matrix(1.0 0.0 0.0 1.0 4.330127034120736 2.5)"/></g><defs><filter id="shadowFilter-g280fde26209_1_24.5" filterUnits="userSpaceOnUse"><feGaussianBlur in="SourceAlpha" stdDeviation="2.5" result="blur"/><feComponentTransfer in="blur" color-interpolation-filters="sRGB"><feFuncR type="linear" slope="0" intercept="0.27058825"/><feFuncG type="linear" slope="0" intercept="0.5058824"/><feFuncB type="linear" slope="0" intercept="0.5568628"/><feFuncA type="linear" slope="0.3" intercept="0"/></feComponentTransfer></filter></defs><g id="g280fde26209_1_24.5"><path fill="#45818e" d="m1.4404725 16.383202l0 0c0 -6.418679 5.273874 -11.622047 11.779528 -11.622047l0 0c3.1241255 0 6.1202936 1.2244625 8.329383 3.4040189c2.2090912 2.1795568 3.4501438 5.1356697 3.4501438 8.218028l0 0c0 6.41868 -5.2738743 11.622047 -11.779527 11.622047l0 0c-6.505654 0 -11.779528 -5.203367 -11.779528 -11.622047z" fill-rule="evenodd"/></g><g filter="url(#shadowFilter-g280fde26209_1_24.6)"><use xlink:href="#g280fde26209_1_24.6" transform="matrix(1.0 0.0 0.0 1.0 4.330127034120736 2.5)"/></g><defs><filter id="shadowFilter-g280fde26209_1_24.6" filterUnits="userSpaceOnUse"><feGaussianBlur in="SourceAlpha" stdDeviation="2.5" result="blur"/><feComponentTransfer in="blur" color-interpolation-filters="sRGB"><feFuncR type="linear" slope="0" intercept="0.27058825"/><feFuncG type="linear" slope="0" intercept="0.5058824"/><feFuncB type="linear" slope="0" intercept="0.5568628"/><feFuncA type="linear" slope="0.3" intercept="0"/></feComponentTransfer></filter></defs><g id="g280fde26209_1_24.6"><path fill="#45818e" d="m1.4404725 39.723354l0 0c0 -6.418682 5.273874 -11.622047 11.779528 -11.622047l0 0c3.1241255 0 6.1202936 1.2244606 8.329383 3.4040184c2.2090912 2.1795578 3.4501438 5.1356697 3.4501438 8.218029l0 0c0 6.4186783 -5.2738743 11.622047 -11.779527 11.622047l0 0c-6.505654 0 -11.779528 -5.203369 -11.779528 -11.622047z" fill-rule="evenodd"/></g><g filter="url(#shadowFilter-g280fde26209_1_24.7)"><use xlink:href="#g280fde26209_1_24.7" transform="matrix(1.0 0.0 0.0 1.0 4.330127034120733 2.5)"/></g><defs><filter id="shadowFilter-g280fde26209_1_24.7" filterUnits="userSpaceOnUse"><feGaussianBlur in="SourceAlpha" stdDeviation="2.5" result="blur"/><feComponentTransfer in="blur" color-interpolation-filters="sRGB"><feFuncR type="linear" slope="0" intercept="0.27058825"/><feFuncG type="linear" slope="0" intercept="0.5058824"/><feFuncB type="linear" slope="0" intercept="0.5568628"/><feFuncA type="linear" slope="0.3" intercept="0"/></feComponentTransfer></filter></defs><g id="g280fde26209_1_24.7"><path fill="#45818e" d="m25.515282 39.723164l0 0c0 -6.4186783 5.2738743 -11.622047 11.779526 -11.622047l0 0c3.1241264 0 6.1202965 1.2244625 8.329384 3.4040203c2.2090912 2.179556 3.4501457 5.135668 3.4501457 8.218027l0 0c0 6.4186783 -5.273876 11.622047 -11.77953 11.622047l0 0c-6.5056515 0 -11.779526 -5.203369 -11.779526 -11.622047z" fill-rule="evenodd"/></g><g filter="url(#shadowFilter-g280fde26209_1_24.8)"><use xlink:href="#g280fde26209_1_24.8" transform="matrix(1.0 0.0 0.0 1.0 4.330127034120733 2.5)"/></g><defs><filter id="shadowFilter-g280fde26209_1_24.8" filterUnits="userSpaceOnUse"><feGaussianBlur in="SourceAlpha" stdDeviation="2.5" result="blur"/><feComponentTransfer in="blur" color-interpolation-filters="sRGB"><feFuncR type="linear" slope="0" intercept="0.27058825"/><feFuncG type="linear" slope="0" intercept="0.5058824"/><feFuncB type="linear" slope="0" intercept="0.5568628"/><feFuncA type="linear" slope="0.3" intercept="0"/></feComponentTransfer></filter></defs><g id="g280fde26209_1_24.8"><path fill="#45818e" d="m49.591465 63.07493l0 0c0 -6.4186783 5.273876 -11.622047 11.77953 -11.622047l0 0c3.1241226 0 6.1202927 1.2244644 8.329384 3.4040184c2.2090912 2.1795578 3.450142 5.1356697 3.450142 8.218029l0 0c0 6.4186783 -5.2738724 11.622047 -11.779526 11.622047l0 0c-6.5056534 0 -11.77953 -5.203369 -11.77953 -11.622047z" fill-rule="evenodd"/></g><g filter="url(#shadowFilter-g280fde26209_1_24.9)"><use xlink:href="#g280fde26209_1_24.9" transform="matrix(1.0 0.0 0.0 1.0 4.330127034120733 2.5)"/></g><defs><filter id="shadowFilter-g280fde26209_1_24.9" filterUnits="userSpaceOnUse"><feGaussianBlur in="SourceAlpha" stdDeviation="2.5" result="blur"/><feComponentTransfer in="blur" color-interpolation-filters="sRGB"><feFuncR type="linear" slope="0" intercept="0.27058825"/><feFuncG type="linear" slope="0" intercept="0.5058824"/><feFuncB type="linear" slope="0" intercept="0.5568628"/><feFuncA type="linear" slope="0.3" intercept="0"/></feComponentTransfer></filter></defs><g id="g280fde26209_1_24.9"><path fill="#45818e" d="m49.59161 39.723164l0 0c0 -6.4186783 5.2738724 -11.622047 11.779526 -11.622047l0 0c3.1241264 0 6.1202965 1.2244625 8.329388 3.4040203c2.2090836 2.179556 3.450142 5.135668 3.450142 8.218027l0 0c0 6.4186783 -5.2738724 11.622047 -11.77953 11.622047l0 0c-6.5056534 0 -11.779526 -5.203369 -11.779526 -11.622047z" fill-rule="evenodd"/></g><g filter="url(#shadowFilter-g280fde26209_1_24.10)"><use xlink:href="#g280fde26209_1_24.10" transform="matrix(1.0 0.0 0.0 1.0 4.330127034120733 2.5)"/></g><defs><filter id="shadowFilter-g280fde26209_1_24.10" filterUnits="userSpaceOnUse"><feGaussianBlur in="SourceAlpha" stdDeviation="2.5" result="blur"/><feComponentTransfer in="blur" color-interpolation-filters="sRGB"><feFuncR type="linear" slope="0" intercept="0.27058825"/><feFuncG type="linear" slope="0" intercept="0.5058824"/><feFuncB type="linear" slope="0" intercept="0.5568628"/><feFuncA type="linear" slope="0.3" intercept="0"/></feComponentTransfer></filter></defs><g id="g280fde26209_1_24.10"><path fill="#45818e" d="m25.515423 63.07493l0 0c0 -6.4186783 5.2738743 -11.622047 11.77953 -11.622047l0 0c3.1241226 0 6.1202927 1.2244644 8.329384 3.4040184c2.2090874 2.1795578 3.450142 5.1356697 3.450142 8.218029l0 0c0 6.4186783 -5.2738724 11.622047 -11.779526 11.622047l0 0c-6.5056553 0 -11.77953 -5.203369 -11.77953 -11.622047z" fill-rule="evenodd"/></g><g filter="url(#shadowFilter-g280fde26209_1_24.11)"><use xlink:href="#g280fde26209_1_24.11" transform="matrix(1.0 0.0 0.0 1.0 4.330127034120733 2.5)"/></g><defs><filter id="shadowFilter-g280fde26209_1_24.11" filterUnits="userSpaceOnUse"><feGaussianBlur in="SourceAlpha" stdDeviation="2.5" result="blur"/><feComponentTransfer in="blur" color-interpolation-filters="sRGB"><feFuncR type="linear" slope="0" intercept="0.27058825"/><feFuncG type="linear" slope="0" intercept="0.5058824"/><feFuncB type="linear" slope="0" intercept="0.5568628"/><feFuncA type="linear" slope="0.3" intercept="0"/></feComponentTransfer></filter></defs><g id="g280fde26209_1_24.11"><path fill="#45818e" d="m73.66547 16.383202l0 0c0 -6.418679 5.27388 -11.622047 11.779533 -11.622047l0 0c3.1241226 0 6.1202927 1.2244625 8.329384 3.4040189c2.2090836 2.1795568 3.450142 5.1356697 3.450142 8.218028l0 0c0 6.41868 -5.2738724 11.622047 -11.779526 11.622047l0 0c-6.5056534 0 -11.779533 -5.203367 -11.779533 -11.622047z" fill-rule="evenodd"/></g><g filter="url(#shadowFilter-g280fde26209_1_24.12)"><use xlink:href="#g280fde26209_1_24.12" transform="matrix(1.0 0.0 0.0 1.0 4.330127034120733 2.5)"/></g><defs><filter id="shadowFilter-g280fde26209_1_24.12" filterUnits="userSpaceOnUse"><feGaussianBlur in="SourceAlpha" stdDeviation="2.5" result="blur"/><feComponentTransfer in="blur" color-interpolation-filters="sRGB"><feFuncR type="linear" slope="0" intercept="0.27058825"/><feFuncG type="linear" slope="0" intercept="0.5058824"/><feFuncB type="linear" slope="0" intercept="0.5568628"/><feFuncA type="linear" slope="0.3" intercept="0"/></feComponentTransfer></filter></defs><g id="g280fde26209_1_24.12"><path fill="#45818e" d="m73.66547 39.735157l0 0c0 -6.418682 5.27388 -11.622049 11.779533 -11.622049l0 0c3.1241226 0 6.1202927 1.2244625 8.329384 3.4040184c2.2090836 2.179556 3.450142 5.1356716 3.450142 8.218031l0 0c0 6.4186783 -5.2738724 11.622047 -11.779526 11.622047l0 0c-6.5056534 0 -11.779533 -5.203369 -11.779533 -11.622047z" fill-rule="evenodd"/></g><g filter="url(#shadowFilter-g280fde26209_1_24.13)"><use xlink:href="#g280fde26209_1_24.13" transform="matrix(1.0 0.0 0.0 1.0 1.9850923884514438 0.24373858267716159)"/></g><defs><filter id="shadowFilter-g280fde26209_1_24.13" filterUnits="userSpaceOnUse"><feGaussianBlur in="SourceAlpha" stdDeviation="2.0" result="blur"/><feComponentTransfer in="blur" color-interpolation-filters="sRGB"><feFuncR type="linear" slope="0" intercept="0.043137256"/><feFuncG type="linear" slope="0" intercept="0.3254902"/><feFuncB type="linear" slope="0" intercept="0.5803922"/><feFuncA type="linear" slope="0.21" intercept="0"/></feComponentTransfer></filter></defs><g id="g280fde26209_1_24.13"><path fill="#ff9900" d="m27.142546 94.90071l19.874018 0l0 6.3936996l-19.874018 0z" fill-rule="evenodd"/></g><g filter="url(#shadowFilter-g280fde26209_1_24.14)"><use xlink:href="#g280fde26209_1_24.14" transform="matrix(1.0 0.0 0.0 1.0 1.985092388451439 0.24373858267716159)"/></g><defs><filter id="shadowFilter-g280fde26209_1_24.14" filterUnits="userSpaceOnUse"><feGaussianBlur in="SourceAlpha" stdDeviation="2.0" result="blur"/><feComponentTransfer in="blur" color-interpolation-filters="sRGB"><feFuncR type="linear" slope="0" intercept="0.043137256"/><feFuncG type="linear" slope="0" intercept="0.3254902"/><feFuncB type="linear" slope="0" intercept="0.5803922"/><feFuncA type="linear" slope="0.21" intercept="0"/></feComponentTransfer></filter></defs><g id="g280fde26209_1_24.14"><path fill="#ff00ff" d="m51.14426 95.236664l19.68504 0l0 6.645668l-19.68504 0z" fill-rule="evenodd"/></g><g filter="url(#shadowFilter-g280fde26209_1_24.15)"><use xlink:href="#g280fde26209_1_24.15" transform="matrix(1.0 0.0 0.0 1.0 4.330127034120743 2.5)"/></g><defs><filter id="shadowFilter-g280fde26209_1_24.15" filterUnits="userSpaceOnUse"><feGaussianBlur in="SourceAlpha" stdDeviation="2.5" result="blur"/><feComponentTransfer in="blur" color-interpolation-filters="sRGB"><feFuncR type="linear" slope="0" intercept="0.0"/><feFuncG type="linear" slope="0" intercept="0.0"/><feFuncB type="linear" slope="0" intercept="0.0"/><feFuncA type="linear" slope="0.3" intercept="0"/></feComponentTransfer></filter></defs><g id="g280fde26209_1_24.15"><path fill="#000000" fill-opacity="0.0" d="m100.07218 28.829397l234.48819 0l0 82.42519l-234.48819 0z" fill-rule="evenodd"/><path fill="#999999" d="m235.12035 28.829397l94.04411 0l0 81.6l-94.04411 0l0 -81.6z" fill-rule="nonzero"/><path fill="#45818e" d="m110.94718 48.68752l-7.34375 -0.890625l0 -4.21875l21.21875 0l8.093758 29.250004l1.90625 7.953125l1.625 -7.953125l8.03125 -29.250004l21.015625 0l0 4.21875l-7.421875 0.890625l5.4375 40.593754l5.515625 0.75l0 4.078125l-21.6875 0l0 -4.078125l5.984375 -0.6875l-3.0 -29.781254l-1.296875 -12.4375l-2.515625 10.46875l-9.859375 34.406254l-7.203125 0l-10.062508 -32.64063l-3.46875 -12.234375l-1.015625 12.4375l-2.59375 29.781254l6.875 0.6875l0 4.078125l-18.90625 0l0 -4.078125l5.71875 -0.6875l4.953125 -40.656254zm61.34359 26.578129q0 -6.390625 2.546875 -10.875q2.546875 -4.484379 6.828125 -6.765629q4.296875 -2.28125 9.328125 -2.28125q8.5625 0 13.21875 5.28125q4.65625 5.265629 4.65625 14.312504q0 6.453125 -2.546875 10.984375q-2.546875 4.515625 -6.796875 6.734375q-4.25 2.203125 -9.359375 2.203125q-8.5 0 -13.1875 -5.265625q-4.6875 -5.28125 -4.6875 -14.328125zm18.421875 15.171875q7.6875 0 7.6875 -14.828125q0 -7.75 -1.84375 -11.796879q-1.828125 -4.046875 -5.96875 -4.046875q-7.890625 0 -7.890625 14.828129q0 7.75 1.9375 11.796875q1.9375 4.046875 6.078125 4.046875zm28.287674 -46.031254l-5.03125 -0.890625l0 -3.671875l12.578125 -1.5l0.140625 0l1.84375 1.296875l0 49.843754l4.953125 0.546875l0 4.078125l-19.234375 0l0 -4.078125l4.75 -0.609375l0 -45.01563z" fill-rule="nonzero"/><path fill="#010000" fill-opacity="0.0" d="m235.12035 27.197317l51.748062 0l0 85.4761l-51.748062 0l0 -85.4761z" fill-rule="nonzero"/><path fill="#ff9900" d="m243.1516 48.68752l-5.109375 -0.890625l0 -4.21875l9.9375 0q2.234375 0 6.046875 -0.265625q0.875 -0.0625 2.6718597 -0.125q1.8125 -0.078125 3.234375 -0.078125q12.515625 0 18.734375 6.265625q6.234375 6.25 6.234375 17.734379q0 8.03125 -3.09375 14.296875q-3.09375 6.25 -8.8125 9.75q-5.71875 3.5 -13.328125 3.5q-1.96875 0 -6.1874847 -0.28125q-3.9375 -0.265625 -5.375 -0.265625l-10.328125 0l0 -4.078125l5.375 -0.6875l0 -40.656254zm9.859375 40.85938q2.3125 0.625 6.4531097 0.625q6.796875 -0.140625 10.671875 -5.46875q3.875 -5.34375 3.875 -16.03125q0 -10.125004 -3.8125 -15.656254q-3.796875 -5.546875 -11.828125 -5.546875q-1.6875 0 -3.2187347 0.203125q-1.53125 0.203125 -2.140625 0.265625l0 41.60938z" fill-rule="nonzero"/><path fill="#000000" fill-opacity="0.0" d="m286.8684 27.197317l42.29605 0l0 85.4761l-42.29605 0l0 -85.4761z" fill-rule="nonzero"/><path fill="#ff00ff" d="m294.89966 48.68752l-5.578125 -0.890625l0 -4.21875l37.53125 0l0.671875 12.3125l-5.4375 0l-2.515625 -7.484375l-14.6875 -0.734375l0 19.234379l10.140625 -0.203125l1.28125 -5.984379l4.359375 0l0 17.281254l-4.28125 0l-1.359375 -6.125l-10.140625 -0.28125l0 17.75l10.40625 0.6875l0 4.078125l-25.640625 0l0 -4.078125l5.25 -0.6875l0 -40.656254z" fill-rule="nonzero"/><path fill="#000000" fill-opacity="0.0" d="m329.16446 27.197317l0 0l0 85.4761l0 0l0 -85.4761z" fill-rule="nonzero"/></g></g></svg>