<svg version="1.1" viewBox="0.0 0.0 480.0 230.3989501312336" fill="none" stroke="none" stroke-linecap="square" stroke-miterlimit="10" xmlns:xlink="http://www.w3.org/1999/xlink" xmlns="http://www.w3.org/2000/svg"><clipPath id="p.0"><path d="m0 0l480.0 0l0 230.39896l-480.0 0l0 -230.39896z" clip-rule="nonzero"/></clipPath><g clip-path="url(#p.0)"><path fill="#000000" fill-opacity="0.0" d="m0 0l480.0 0l0 230.39896l-480.0 0z" fill-rule="evenodd"/><path fill="#073763" d="m0.26771653 159.96594l0 0c0 -1.838089 1.4900638 -3.3281403 3.3281507 -3.3281403l13.312202 0l0 0c0.8826809 0 1.729208 0.3506317 2.3533573 0.9747925c0.6241493 0.6241455 0.9747944 1.4706726 0.9747944 2.3533478l0 65.343704c0 1.838089 -1.4900646 3.3281555 -3.3281517 3.3281555l-13.312202 0c-1.8380868 0 -3.3281507 -1.4900665 -3.3281507 -3.3281555z" fill-rule="evenodd"/><path fill="#073763" d="m139.97113 159.96594l0 0c0 -1.838089 1.4900665 -3.3281403 3.3281555 -3.3281403l13.312195 0l0 0c0.8826752 0 1.7292023 0.3506317 2.353363 0.9747925c0.6241455 0.6241455 0.9747925 1.4706726 0.9747925 2.3533478l0 65.343704c0 1.838089 -1.4900665 3.3281555 -3.3281555 3.3281555l-13.312195 0c-1.838089 0 -3.3281555 -1.4900665 -3.3281555 -3.3281555z" fill-rule="evenodd"/><path fill="#073763" d="m43.57984 130.87146l0 0c0 -1.838089 1.4900665 -3.3281555 3.3281517 -3.3281555l13.312202 0l0 0c0.882679 0 1.7292099 0.35064697 2.3533592 0.9747925c0.6241493 0.6241455 0.9747925 1.4706879 0.9747925 2.353363l0 65.34369c0 1.838089 -1.4900665 3.3281555 -3.3281517 3.3281555l-13.312202 0c-1.8380852 0 -3.3281517 -1.4900665 -3.3281517 -3.3281555z" fill-rule="evenodd"/><path fill="#073763" d="m97.33984 130.87146l0 0c0 -1.838089 1.4900589 -3.3281555 3.328148 -3.3281555l13.312202 0l0 0c0.8826828 0 1.7292099 0.35064697 2.353363 0.9747925c0.6241455 0.6241455 0.9747925 1.4706879 0.9747925 2.353363l0 65.34369c0 1.838089 -1.4900665 3.3281555 -3.3281555 3.3281555l-13.312202 0c-1.838089 0 -3.328148 -1.4900665 -3.328148 -3.3281555z" fill-rule="evenodd"/><path fill="#0b5394" d="m0.26771653 14.737113l0 0c0 -7.166656 5.8097224 -12.976378 12.976378 -12.976378l0 0c3.4415493 0 6.7421417 1.3671502 9.175684 3.800693c2.4335442 2.4335427 3.8006935 5.7341356 3.8006935 9.175685l0 0c0 7.1666555 -5.809723 12.976378 -12.9763775 12.976378l0 0c-7.166656 0 -12.976378 -5.809723 -12.976378 -12.976378z" fill-rule="evenodd"/><path stroke="#00b9ff" stroke-width="1.0" stroke-linejoin="round" stroke-linecap="butt" d="m0.26771653 14.737113l0 0c0 -7.166656 5.8097224 -12.976378 12.976378 -12.976378l0 0c3.4415493 0 6.7421417 1.3671502 9.175684 3.800693c2.4335442 2.4335427 3.8006935 5.7341356 3.8006935 9.175685l0 0c0 7.1666555 -5.809723 12.976378 -12.9763775 12.976378l0 0c-7.166656 0 -12.976378 -5.809723 -12.976378 -12.976378z" fill-rule="evenodd"/><path fill="#0b5394" d="m0.26771653 63.986877l0 0c0 -7.1666565 5.8097224 -12.976379 12.976378 -12.976379l0 0c3.4415493 0 6.7421417 1.3671494 9.175684 3.8006935c2.4335442 2.4335442 3.8006935 5.7341347 3.8006935 9.175686l0 0c0 7.1666565 -5.809723 12.976379 -12.9763775 12.976379l0 0c-7.166656 0 -12.976378 -5.809723 -12.976378 -12.976379z" fill-rule="evenodd"/><path stroke="#00b9ff" stroke-width="1.0" stroke-linejoin="round" stroke-linecap="butt" d="m0.26771653 63.986877l0 0c0 -7.1666565 5.8097224 -12.976379 12.976378 -12.976379l0 0c3.4415493 0 6.7421417 1.3671494 9.175684 3.8006935c2.4335442 2.4335442 3.8006935 5.7341347 3.8006935 9.175686l0 0c0 7.1666565 -5.809723 12.976379 -12.9763775 12.976379l0 0c-7.166656 0 -12.976378 -5.809723 -12.976378 -12.976379z" fill-rule="evenodd"/><path fill="#0b5394" d="m40.587715 46.417114l0 0c0 -7.1666565 5.809723 -12.976379 12.976379 -12.976379l0 0c3.4415512 0 6.7421417 1.3671494 9.175686 3.8006935c2.4335442 2.4335442 3.8006935 5.7341347 3.8006935 9.175686l0 0c0 7.1666527 -5.809723 12.976376 -12.976379 12.976376l0 0c-7.1666565 0 -12.976379 -5.809723 -12.976379 -12.976376z" fill-rule="evenodd"/><path stroke="#00b9ff" stroke-width="1.0" stroke-linejoin="round" stroke-linecap="butt" d="m40.587715 46.417114l0 0c0 -7.1666565 5.809723 -12.976379 12.976379 -12.976379l0 0c3.4415512 0 6.7421417 1.3671494 9.175686 3.8006935c2.4335442 2.4335442 3.8006935 5.7341347 3.8006935 9.175686l0 0c0 7.1666527 -5.809723 12.976376 -12.976379 12.976376l0 0c-7.1666565 0 -12.976379 -5.809723 -12.976379 -12.976376z" fill-rule="evenodd"/><path fill="#0b5394" d="m40.587715 95.72441l0 0c0 -7.1666565 5.809723 -12.976379 12.976379 -12.976379l0 0c3.4415512 0 6.7421417 1.3671494 9.175686 3.8006897c2.4335442 2.433548 3.8006935 5.7341385 3.8006935 9.17569l0 0c0 7.1666565 -5.809723 12.976379 -12.976379 12.976379l0 0c-7.1666565 0 -12.976379 -5.809723 -12.976379 -12.976379z" fill-rule="evenodd"/><path stroke="#00b9ff" stroke-width="1.0" stroke-linejoin="round" stroke-linecap="butt" d="m40.587715 95.72441l0 0c0 -7.1666565 5.809723 -12.976379 12.976379 -12.976379l0 0c3.4415512 0 6.7421417 1.3671494 9.175686 3.8006897c2.4335442 2.433548 3.8006935 5.7341385 3.8006935 9.17569l0 0c0 7.1666565 -5.809723 12.976379 -12.976379 12.976379l0 0c-7.1666565 0 -12.976379 -5.809723 -12.976379 -12.976379z" fill-rule="evenodd"/><path fill="#0b5394" d="m94.34772 46.417114l0 0c0 -7.1666565 5.809723 -12.976379 12.976379 -12.976379l0 0c3.4415436 0 6.7421417 1.3671494 9.175682 3.8006935c2.4335403 2.4335442 3.8006973 5.7341347 3.8006973 9.175686l0 0c0 7.1666527 -5.809723 12.976376 -12.976379 12.976376l0 0c-7.1666565 0 -12.976379 -5.809723 -12.976379 -12.976376z" fill-rule="evenodd"/><path stroke="#00b9ff" stroke-width="1.0" stroke-linejoin="round" stroke-linecap="butt" d="m94.34772 46.417114l0 0c0 -7.1666565 5.809723 -12.976379 12.976379 -12.976379l0 0c3.4415436 0 6.7421417 1.3671494 9.175682 3.8006935c2.4335403 2.4335442 3.8006973 5.7341347 3.8006973 9.175686l0 0c0 7.1666527 -5.809723 12.976376 -12.976379 12.976376l0 0c-7.1666565 0 -12.976379 -5.809723 -12.976379 -12.976376z" fill-rule="evenodd"/><path fill="#0b5394" d="m94.34772 95.72441l0 0c0 -7.1666565 5.809723 -12.976379 12.976379 -12.976379l0 0c3.4415436 0 6.7421417 1.3671494 9.175682 3.8006897c2.4335403 2.433548 3.8006973 5.7341385 3.8006973 9.17569l0 0c0 7.1666565 -5.809723 12.976379 -12.976379 12.976379l0 0c-7.1666565 0 -12.976379 -5.809723 -12.976379 -12.976379z" fill-rule="evenodd"/><path stroke="#00b9ff" stroke-width="1.0" stroke-linejoin="round" stroke-linecap="butt" d="m94.34772 95.72441l0 0c0 -7.1666565 5.809723 -12.976379 12.976379 -12.976379l0 0c3.4415436 0 6.7421417 1.3671494 9.175682 3.8006897c2.4335403 2.433548 3.8006973 5.7341385 3.8006973 9.17569l0 0c0 7.1666565 -5.809723 12.976379 -12.976379 12.976379l0 0c-7.1666565 0 -12.976379 -5.809723 -12.976379 -12.976379z" fill-rule="evenodd"/><path fill="#0b5394" d="m136.979 14.737113l0 0c0 -7.166656 5.809723 -12.976378 12.976379 -12.976378l0 0c3.4415436 0 6.7421417 1.3671502 9.17569 3.800693c2.4335327 2.4335427 3.8006897 5.7341356 3.8006897 9.175685l0 0c0 7.1666555 -5.809723 12.976378 -12.976379 12.976378l0 0c-7.1666565 0 -12.976379 -5.809723 -12.976379 -12.976378z" fill-rule="evenodd"/><path stroke="#00b9ff" stroke-width="1.0" stroke-linejoin="round" stroke-linecap="butt" d="m136.979 14.737113l0 0c0 -7.166656 5.809723 -12.976378 12.976379 -12.976378l0 0c3.4415436 0 6.7421417 1.3671502 9.17569 3.800693c2.4335327 2.4335427 3.8006897 5.7341356 3.8006897 9.175685l0 0c0 7.1666555 -5.809723 12.976378 -12.976379 12.976378l0 0c-7.1666565 0 -12.976379 -5.809723 -12.976379 -12.976378z" fill-rule="evenodd"/><path fill="#0b5394" d="m136.979 63.986877l0 0c0 -7.1666565 5.809723 -12.976379 12.976379 -12.976379l0 0c3.4415436 0 6.7421417 1.3671494 9.17569 3.8006935c2.4335327 2.4335442 3.8006897 5.7341347 3.8006897 9.175686l0 0c0 7.1666565 -5.809723 12.976379 -12.976379 12.976379l0 0c-7.1666565 0 -12.976379 -5.809723 -12.976379 -12.976379z" fill-rule="evenodd"/><path stroke="#00b9ff" stroke-width="1.0" stroke-linejoin="round" stroke-linecap="butt" d="m136.979 63.986877l0 0c0 -7.1666565 5.809723 -12.976379 12.976379 -12.976379l0 0c3.4415436 0 6.7421417 1.3671494 9.17569 3.8006935c2.4335327 2.4335442 3.8006897 5.7341347 3.8006897 9.175686l0 0c0 7.1666565 -5.809723 12.976379 -12.976379 12.976379l0 0c-7.1666565 0 -12.976379 -5.809723 -12.976379 -12.976379z" fill-rule="evenodd"/><path fill="#ffff00" d="m43.540474 157.28073l19.968502 0l0 15.464569l-19.968502 0z" fill-rule="evenodd"/><path fill="#ff0000" d="m97.33984 157.28073l19.968506 0l0 15.464569l-19.968506 0z" fill-rule="evenodd"/><path fill="#000000" fill-opacity="0.0" d="m165.6378 45.78478l314.36218 0l0 111.49606l-314.36218 0z" fill-rule="evenodd"/><path fill="#0b5394" d="m174.8878 150.01103q-1.359375 0 -2.25 -0.890625q-0.875 -0.875 -0.875 -2.234375l0 -31.484383q0.0625 -5.296875 2.546875 -9.578125q2.484375 -4.296875 6.6875 -6.734375q4.21875 -2.453125 9.53125 -2.453125q5.375 0 9.625 2.484375q4.25 2.484375 6.71875 6.734375q2.484375 4.25 2.484375 9.6875q0 5.375 -2.34375 9.65625q-2.34375 4.2812576 -6.359375 6.7343826q-4.0 2.4375 -9.046875 2.4375q-4.28125 0 -7.75 -1.765625q-3.46875 -1.765625 -5.84375 -4.7500076l0 19.031258q0 1.359375 -0.859375 2.234375q-0.84375 0.890625 -2.265625 0.890625zm15.640625 -21.203125q3.59375 0 6.484375 -1.7343826q2.890625 -1.734375 4.5625 -4.765625q1.671875 -3.03125 1.671875 -6.765625q0 -3.8125 -1.671875 -6.828125q-1.671875 -3.03125 -4.5625 -4.765625q-2.890625 -1.734375 -6.484375 -1.734375q-3.609375 0 -6.5 1.765625q-2.890625 1.765625 -4.53125 4.765625q-1.625 2.984375 -1.625 6.796875q0 3.734375 1.625 6.765625q1.640625 3.03125 4.53125 4.765625q2.890625 1.7343826 6.5 1.7343826zm46.0338 5.5625q-5.296875 0 -9.546875 -2.46875q-4.25 -2.484375 -6.734375 -6.7656326q-2.484375 -4.296875 -2.484375 -9.65625q0 -5.375 2.3125 -9.625q2.3125 -4.25 6.3125 -6.734375q4.015625 -2.484375 9.125 -2.484375q4.21875 0 7.71875 1.765625q3.5 1.765625 5.8125 4.765625l0 -19.046875q0 -1.421875 0.875 -2.265625q0.890625 -0.859375 2.25 -0.859375q1.421875 0 2.296875 0.859375q0.890625 0.84375 0.890625 2.265625l0 31.484375q-0.0625 5.3125 -2.546875 9.59375q-2.484375 4.2812576 -6.734375 6.7343826q-4.25 2.4375 -9.546875 2.4375zm0 -5.5625q3.671875 0 6.53125 -1.7343826q2.859375 -1.734375 4.515625 -4.765625q1.671875 -3.03125 1.671875 -6.828125q0 -3.8125 -1.671875 -6.796875q-1.65625 -3.0 -4.515625 -4.734375q-2.859375 -1.734375 -6.53125 -1.734375q-3.53125 0 -6.46875 1.734375q-2.921875 1.734375 -4.59375 4.734375q-1.65625 2.984375 -1.65625 6.796875q0 3.796875 1.65625 6.828125q1.671875 3.03125 4.59375 4.765625q2.9375 1.7343826 6.46875 1.7343826zm49.846283 5.5625q-5.3125 0 -9.5625 -2.4375q-4.25 -2.453125 -6.703125 -6.7343826q-2.4375 -4.28125 -2.5 -9.59375l0 -31.484375q0 -1.421875 0.875 -2.265625q0.890625 -0.859375 2.25 -0.859375q1.421875 0 2.265625 0.859375q0.859375 0.84375 0.859375 2.265625l0 19.046875q2.375 -3.0 5.84375 -4.765625q3.46875 -1.765625 7.75 -1.765625q5.046875 0 9.046875 2.484375q4.015625 2.484375 6.359375 6.734375q2.34375 4.25 2.34375 9.625q0 5.359375 -2.484375 9.65625q-2.46875 4.2812576 -6.71875 6.7656326q-4.25 2.46875 -9.625 2.46875zm0 -5.5625q3.59375 0 6.484375 -1.7343826q2.890625 -1.734375 4.5625 -4.765625q1.671875 -3.03125 1.671875 -6.828125q0 -3.8125 -1.671875 -6.796875q-1.671875 -3.0 -4.5625 -4.734375q-2.890625 -1.734375 -6.484375 -1.734375q-3.609375 0 -6.5 1.734375q-2.890625 1.734375 -4.53125 4.734375q-1.625 2.984375 -1.625 6.796875q0 3.796875 1.625 6.828125q1.640625 3.03125 4.53125 4.765625q2.890625 1.7343826 6.5 1.7343826z" fill-rule="nonzero"/><path fill="#073763" d="m352.97357 134.10478q-1.015625 0 -1.75 -0.3125q-0.734375 -0.328125 -1.46875 -1.25l-16.09375 -19.687508l-3.046875 -2.953125l-16.0 -19.5q-1.203125 -1.28125 -1.203125 -2.84375q0 -1.5625 0.921875 -2.671875q0.921875 -1.109375 2.765625 -1.109375q1.921875 0 3.21875 1.390625l15.640625 19.125l2.390625 2.21875l17.203125 21.15625q1.28125 1.5625076 1.1875 3.0312576q-0.078125 1.46875 -1.140625 2.4375q-1.0625 0.96875 -2.625 0.96875zm-35.609375 0q-1.75 0 -2.71875 -1.046875q-0.953125 -1.0625 -0.953125 -2.578125q0 -1.53125 1.109375 -3.0000076l16.1875 -20.234375l4.59375 6.34375l-15.265625 19.234383q-1.109375 1.28125 -2.953125 1.28125zm22.265625 -23.734383l-5.609375 -5.15625l15.1875 -19.875q0.734375 -0.921875 1.515625 -1.234375q0.78125 -0.328125 1.796875 -0.328125q1.828125 0 2.75 1.15625q0.921875 1.140625 0.875 2.71875q-0.046875 1.5625 -1.140625 3.03125l-15.375 19.6875z" fill-rule="nonzero"/><path fill="#0b5394" d="m368.17593 134.10478q-1.359375 0 -2.28125 -0.921875q-0.90625 -0.921875 -0.90625 -2.203125q0 -1.359375 0.875 -2.25l19.796875 -23.250008q1.96875 -2.171875 3.015625 -4.34375q1.0625 -2.1875 1.0625 -4.09375q0 -3.0625 -1.09375 -5.328125q-1.09375 -2.28125 -3.171875 -3.578125q-2.0625 -1.296875 -4.78125 -1.296875q-2.71875 0 -4.90625 1.40625q-2.171875 1.390625 -3.390625 3.703125q-1.21875 2.3125 -1.21875 5.09375q0 1.21875 -0.921875 2.140625q-0.921875 0.921875 -2.28125 0.921875q-1.296875 0 -2.21875 -0.921875q-0.90625 -0.921875 -0.90625 -2.140625q0 -4.625 2.0625 -8.21875q2.078125 -3.609375 5.6875 -5.71875q3.609375 -2.109375 8.09375 -2.109375q4.546875 0 7.953125 1.984375q3.40625 1.96875 5.296875 5.578125q1.90625 3.59375 1.90625 8.484375q0 2.171875 -0.84375 4.359375q-0.84375 2.171875 -2.171875 4.140625q-1.328125 1.96875 -2.765625 3.609375l-16.25 18.625l19.859375 0q1.359375 0 2.28125 0.9843826q0.921875 0.984375 0.921875 2.21875q0 1.28125 -0.921875 2.203125q-0.921875 0.921875 -2.28125 0.921875l-25.5 0zm52.294434 0.265625q-5.296875 0 -9.546875 -2.46875q-4.25 -2.484375 -6.734375 -6.7656326q-2.484375 -4.296875 -2.484375 -9.65625q0 -5.375 2.3125 -9.625q2.3125 -4.25 6.3125 -6.734375q4.015625 -2.484375 9.125 -2.484375q4.21875 0 7.71875 1.765625q3.5 1.765625 5.8125 4.765625l0 -19.046875q0 -1.421875 0.875 -2.265625q0.890625 -0.859375 2.25 -0.859375q1.421875 0 2.296875 0.859375q0.890625 0.84375 0.890625 2.265625l0 31.484375q-0.0625 5.3125 -2.546875 9.59375q-2.484375 4.2812576 -6.734375 6.7343826q-4.25 2.4375 -9.546875 2.4375zm0 -5.5625q3.671875 0 6.53125 -1.7343826q2.859375 -1.734375 4.515625 -4.765625q1.671875 -3.03125 1.671875 -6.828125q0 -3.8125 -1.671875 -6.796875q-1.65625 -3.0 -4.515625 -4.734375q-2.859375 -1.734375 -6.53125 -1.734375q-3.53125 0 -6.46875 1.734375q-2.921875 1.734375 -4.59375 4.734375q-1.65625 2.984375 -1.65625 6.796875q0 3.796875 1.65625 6.828125q1.671875 3.03125 4.59375 4.765625q2.9375 1.7343826 6.46875 1.7343826zm35.299408 5.296875q-1.15625 0 -2.078125 -0.84375q-0.921875 -0.859375 -0.921875 -2.28125l0 -33.937508q0 -4.828125 1.828125 -8.421875q1.84375 -3.609375 5.203125 -5.609375q3.375 -2.015625 7.921875 -2.015625q1.359375 0 2.25 0.828125q0.890625 0.8125 0.890625 2.03125q0 1.15625 -0.890625 2.015625q-0.890625 0.84375 -2.25 0.84375q-2.71875 0 -4.65625 1.21875q-1.9375 1.21875 -3.0 3.4375q-1.046875 2.203125 -1.046875 5.203125l0 34.406258q0 1.421875 -0.84375 2.28125q-0.84375 0.84375 -2.40625 0.84375zm-6.46875 -30.468758q-1.296875 0 -2.078125 -0.734375q-0.78125 -0.75 -0.78125 -1.90625q0 -1.234375 0.78125 -1.984375q0.78125 -0.75 2.078125 -0.75l17.140625 0q1.28125 0 2.09375 0.75q0.828125 0.75 0.828125 1.984375q0 1.15625 -0.828125 1.90625q-0.8125 0.734375 -2.09375 0.734375l-17.140625 0z" fill-rule="nonzero"/></g></svg>