<svg version="1.1" viewBox="0.0 0.0 422.3989501312336 140.16010498687663" fill="none" stroke="none" stroke-linecap="square" stroke-miterlimit="10" xmlns:xlink="http://www.w3.org/1999/xlink" xmlns="http://www.w3.org/2000/svg"><clipPath id="g280fde26209_1_24.0"><path d="m0 0l422.39896 0l0 140.16011l-422.39896 0l0 -140.16011z" clip-rule="nonzero"/></clipPath><g clip-path="url(#g280fde26209_1_24.0)"><path fill="#000000" fill-opacity="0.0" d="m0 0l422.39896 0l0 140.16011l-422.39896 0z" fill-rule="evenodd"/><g filter="url(#shadowFilter-g280fde26209_1_24.1)"><use xlink:href="#g280fde26209_1_24.1" transform="matrix(1.0 0.0 0.0 1.0 4.330127034120736 2.5)"/></g><defs><filter id="shadowFilter-g280fde26209_1_24.1" filterUnits="userSpaceOnUse"><feGaussianBlur in="SourceAlpha" stdDeviation="2.5" result="blur"/><feComponentTransfer in="blur" color-interpolation-filters="sRGB"><feFuncR type="linear" slope="0" intercept="0.6"/><feFuncG type="linear" slope="0" intercept="0.6"/><feFuncB type="linear" slope="0" intercept="0.6"/><feFuncA type="linear" slope="0.3" intercept="0"/></feComponentTransfer></filter></defs><g id="g280fde26209_1_24.1"><path fill="#999999" d="m8.899151 100.32827l0 0c0 -1.8119888 1.4689112 -3.280899 3.2809057 -3.280899l13.123227 0l0 0c0.8701515 0 1.7046623 0.34566498 2.319952 0.96095276c0.6152878 0.6152878 0.96095467 1.4497986 0.96095467 2.3199463l0 31.831886c0 1.8119965 -1.4689121 3.2809143 -3.2809067 3.2809143l-13.123227 0c-1.8119946 0 -3.2809057 -1.4689178 -3.2809057 -3.2809143z" fill-rule="evenodd"/></g><g filter="url(#shadowFilter-g280fde26209_1_24.2)"><use xlink:href="#g280fde26209_1_24.2" transform="matrix(1.0 0.0 0.0 1.0 4.330127034120733 2.5)"/></g><defs><filter id="shadowFilter-g280fde26209_1_24.2" filterUnits="userSpaceOnUse"><feGaussianBlur in="SourceAlpha" stdDeviation="2.5" result="blur"/><feComponentTransfer in="blur" color-interpolation-filters="sRGB"><feFuncR type="linear" slope="0" intercept="0.6"/><feFuncG type="linear" slope="0" intercept="0.6"/><feFuncB type="linear" slope="0" intercept="0.6"/><feFuncA type="linear" slope="0.3" intercept="0"/></feComponentTransfer></filter></defs><g id="g280fde26209_1_24.2"><path fill="#999999" d="m80.88618 100.32827l0 0c0 -1.8119888 1.4689178 -3.280899 3.2809067 -3.280899l13.12323 0l0 0c0.8701477 0 1.7046585 0.34566498 2.319954 0.96095276c0.6152878 0.6152878 0.96095276 1.4497986 0.96095276 2.3199463l0 31.831886c0 1.8119965 -1.4689102 3.2809143 -3.2809067 3.2809143l-13.12323 0c-1.8119888 0 -3.2809067 -1.4689178 -3.2809067 -3.2809143z" fill-rule="evenodd"/></g><g filter="url(#shadowFilter-g280fde26209_1_24.3)"><use xlink:href="#g280fde26209_1_24.3" transform="matrix(1.0 0.0 0.0 1.0 4.330127034120733 2.5)"/></g><defs><filter id="shadowFilter-g280fde26209_1_24.3" filterUnits="userSpaceOnUse"><feGaussianBlur in="SourceAlpha" stdDeviation="2.5" result="blur"/><feComponentTransfer in="blur" color-interpolation-filters="sRGB"><feFuncR type="linear" slope="0" intercept="0.6"/><feFuncG type="linear" slope="0" intercept="0.6"/><feFuncB type="linear" slope="0" intercept="0.6"/><feFuncA type="linear" slope="0.3" intercept="0"/></feComponentTransfer></filter></defs><g id="g280fde26209_1_24.3"><path fill="#999999" d="m32.515244 82.236465l0 0c0 -1.8119888 1.468914 -3.2809067 3.2809067 -3.2809067l13.123226 0l0 0c0.8701515 0 1.7046623 0.3456726 2.319954 0.9609604c0.6152878 0.6152878 0.96095276 1.4497986 0.96095276 2.3199463l0 31.800392c0 1.8119965 -1.4689102 3.2809067 -3.2809067 3.2809067l-13.123226 0c-1.8119926 0 -3.2809067 -1.4689102 -3.2809067 -3.2809067z" fill-rule="evenodd"/></g><g filter="url(#shadowFilter-g280fde26209_1_24.4)"><use xlink:href="#g280fde26209_1_24.4" transform="matrix(1.0 0.0 0.0 1.0 4.330127034120733 2.5)"/></g><defs><filter id="shadowFilter-g280fde26209_1_24.4" filterUnits="userSpaceOnUse"><feGaussianBlur in="SourceAlpha" stdDeviation="2.5" result="blur"/><feComponentTransfer in="blur" color-interpolation-filters="sRGB"><feFuncR type="linear" slope="0" intercept="0.6"/><feFuncG type="linear" slope="0" intercept="0.6"/><feFuncB type="linear" slope="0" intercept="0.6"/><feFuncA type="linear" slope="0.3" intercept="0"/></feComponentTransfer></filter></defs><g id="g280fde26209_1_24.4"><path fill="#999999" d="m56.422497 82.236465l0 0c0 -1.8119888 1.4689102 -3.2809067 3.2809029 -3.2809067l13.12323 0l0 0c0.8701477 0 1.7046585 0.3456726 2.3199463 0.9609604c0.6152954 0.6152878 0.9609604 1.4497986 0.9609604 2.3199463l0 31.800392c0 1.8119965 -1.4689102 3.2809067 -3.2809067 3.2809067l-13.12323 0c-1.8119926 0 -3.2809029 -1.4689102 -3.2809029 -3.2809067z" fill-rule="evenodd"/></g><g filter="url(#shadowFilter-g280fde26209_1_24.5)"><use xlink:href="#g280fde26209_1_24.5" transform="matrix(1.0 0.0 0.0 1.0 4.330127034120734 2.5)"/></g><defs><filter id="shadowFilter-g280fde26209_1_24.5" filterUnits="userSpaceOnUse"><feGaussianBlur in="SourceAlpha" stdDeviation="2.5" result="blur"/><feComponentTransfer in="blur" color-interpolation-filters="sRGB"><feFuncR type="linear" slope="0" intercept="0.27058825"/><feFuncG type="linear" slope="0" intercept="0.5058824"/><feFuncB type="linear" slope="0" intercept="0.5568628"/><feFuncA type="linear" slope="0.3" intercept="0"/></feComponentTransfer></filter></defs><g id="g280fde26209_1_24.5"><path fill="#45818e" d="m6.72 16.422573l0 0c0 -6.41868 5.2738748 -11.622048 11.779528 -11.622048l0 0c3.1241264 0 6.1202946 1.2244625 8.329384 3.4040194c2.2090912 2.179556 3.4501438 5.1356697 3.4501438 8.218029l0 0c0 6.4186783 -5.2738743 11.6220455 -11.779528 11.6220455l0 0c-6.5056524 0 -11.779528 -5.203367 -11.779528 -11.6220455z" fill-rule="evenodd"/></g><g filter="url(#shadowFilter-g280fde26209_1_24.6)"><use xlink:href="#g280fde26209_1_24.6" transform="matrix(1.0 0.0 0.0 1.0 4.330127034120734 2.5)"/></g><defs><filter id="shadowFilter-g280fde26209_1_24.6" filterUnits="userSpaceOnUse"><feGaussianBlur in="SourceAlpha" stdDeviation="2.5" result="blur"/><feComponentTransfer in="blur" color-interpolation-filters="sRGB"><feFuncR type="linear" slope="0" intercept="0.27058825"/><feFuncG type="linear" slope="0" intercept="0.5058824"/><feFuncB type="linear" slope="0" intercept="0.5568628"/><feFuncA type="linear" slope="0.3" intercept="0"/></feComponentTransfer></filter></defs><g id="g280fde26209_1_24.6"><path fill="#45818e" d="m6.72 39.762722l0 0c0 -6.4186783 5.2738748 -11.6220455 11.779528 -11.6220455l0 0c3.1241264 0 6.1202946 1.2244625 8.329384 3.4040184c2.2090912 2.179556 3.4501438 5.1356716 3.4501438 8.218027l0 0c0 6.418682 -5.2738743 11.622047 -11.779528 11.622047l0 0c-6.5056524 0 -11.779528 -5.2033653 -11.779528 -11.622047z" fill-rule="evenodd"/></g><g filter="url(#shadowFilter-g280fde26209_1_24.7)"><use xlink:href="#g280fde26209_1_24.7" transform="matrix(1.0 0.0 0.0 1.0 4.330127034120733 2.5)"/></g><defs><filter id="shadowFilter-g280fde26209_1_24.7" filterUnits="userSpaceOnUse"><feGaussianBlur in="SourceAlpha" stdDeviation="2.5" result="blur"/><feComponentTransfer in="blur" color-interpolation-filters="sRGB"><feFuncR type="linear" slope="0" intercept="0.27058825"/><feFuncG type="linear" slope="0" intercept="0.5058824"/><feFuncB type="linear" slope="0" intercept="0.5568628"/><feFuncA type="linear" slope="0.3" intercept="0"/></feComponentTransfer></filter></defs><g id="g280fde26209_1_24.7"><path fill="#45818e" d="m30.79481 39.762535l0 0c0 -6.418682 5.2738743 -11.622047 11.779528 -11.622047l0 0c3.1241226 0 6.1202927 1.2244606 8.329384 3.4040184c2.2090874 2.1795578 3.450142 5.1356697 3.450142 8.218029l0 0c0 6.4186783 -5.2738724 11.622047 -11.779526 11.622047l0 0c-6.5056534 0 -11.779528 -5.203369 -11.779528 -11.622047z" fill-rule="evenodd"/></g><g filter="url(#shadowFilter-g280fde26209_1_24.8)"><use xlink:href="#g280fde26209_1_24.8" transform="matrix(1.0 0.0 0.0 1.0 4.330127034120733 2.5)"/></g><defs><filter id="shadowFilter-g280fde26209_1_24.8" filterUnits="userSpaceOnUse"><feGaussianBlur in="SourceAlpha" stdDeviation="2.5" result="blur"/><feComponentTransfer in="blur" color-interpolation-filters="sRGB"><feFuncR type="linear" slope="0" intercept="0.27058825"/><feFuncG type="linear" slope="0" intercept="0.5058824"/><feFuncB type="linear" slope="0" intercept="0.5568628"/><feFuncA type="linear" slope="0.3" intercept="0"/></feComponentTransfer></filter></defs><g id="g280fde26209_1_24.8"><path fill="#45818e" d="m54.870995 63.1143l0 0c0 -6.418682 5.2738724 -11.622047 11.779526 -11.622047l0 0c3.1241226 0 6.1202927 1.2244606 8.329384 3.4040184c2.2090912 2.1795578 3.450142 5.1356697 3.450142 8.218029l0 0c0 6.418682 -5.2738724 11.622044 -11.779526 11.622044l0 0c-6.5056534 0 -11.779526 -5.2033615 -11.779526 -11.622044z" fill-rule="evenodd"/></g><g filter="url(#shadowFilter-g280fde26209_1_24.9)"><use xlink:href="#g280fde26209_1_24.9" transform="matrix(1.0 0.0 0.0 1.0 4.330127034120733 2.5)"/></g><defs><filter id="shadowFilter-g280fde26209_1_24.9" filterUnits="userSpaceOnUse"><feGaussianBlur in="SourceAlpha" stdDeviation="2.5" result="blur"/><feComponentTransfer in="blur" color-interpolation-filters="sRGB"><feFuncR type="linear" slope="0" intercept="0.27058825"/><feFuncG type="linear" slope="0" intercept="0.5058824"/><feFuncB type="linear" slope="0" intercept="0.5568628"/><feFuncA type="linear" slope="0.3" intercept="0"/></feComponentTransfer></filter></defs><g id="g280fde26209_1_24.9"><path fill="#45818e" d="m54.871136 39.762535l0 0c0 -6.418682 5.273876 -11.622047 11.77953 -11.622047l0 0c3.1241226 0 6.1202927 1.2244606 8.329384 3.4040184c2.2090912 2.1795578 3.450142 5.1356697 3.450142 8.218029l0 0c0 6.4186783 -5.2738724 11.622047 -11.779526 11.622047l0 0c-6.5056534 0 -11.77953 -5.203369 -11.77953 -11.622047z" fill-rule="evenodd"/></g><g filter="url(#shadowFilter-g280fde26209_1_24.10)"><use xlink:href="#g280fde26209_1_24.10" transform="matrix(1.0 0.0 0.0 1.0 4.330127034120733 2.5)"/></g><defs><filter id="shadowFilter-g280fde26209_1_24.10" filterUnits="userSpaceOnUse"><feGaussianBlur in="SourceAlpha" stdDeviation="2.5" result="blur"/><feComponentTransfer in="blur" color-interpolation-filters="sRGB"><feFuncR type="linear" slope="0" intercept="0.27058825"/><feFuncG type="linear" slope="0" intercept="0.5058824"/><feFuncB type="linear" slope="0" intercept="0.5568628"/><feFuncA type="linear" slope="0.3" intercept="0"/></feComponentTransfer></filter></defs><g id="g280fde26209_1_24.10"><path fill="#45818e" d="m30.79495 63.1143l0 0c0 -6.418682 5.2738743 -11.622047 11.779528 -11.622047l0 0c3.1241264 0 6.1202927 1.2244606 8.329384 3.4040184c2.2090912 2.1795578 3.4501457 5.1356697 3.4501457 8.218029l0 0c0 6.418682 -5.273876 11.622044 -11.77953 11.622044l0 0c-6.5056534 0 -11.779528 -5.2033615 -11.779528 -11.622044z" fill-rule="evenodd"/></g><g filter="url(#shadowFilter-g280fde26209_1_24.11)"><use xlink:href="#g280fde26209_1_24.11" transform="matrix(1.0 0.0 0.0 1.0 4.330127034120733 2.5)"/></g><defs><filter id="shadowFilter-g280fde26209_1_24.11" filterUnits="userSpaceOnUse"><feGaussianBlur in="SourceAlpha" stdDeviation="2.5" result="blur"/><feComponentTransfer in="blur" color-interpolation-filters="sRGB"><feFuncR type="linear" slope="0" intercept="0.27058825"/><feFuncG type="linear" slope="0" intercept="0.5058824"/><feFuncB type="linear" slope="0" intercept="0.5568628"/><feFuncA type="linear" slope="0.3" intercept="0"/></feComponentTransfer></filter></defs><g id="g280fde26209_1_24.11"><path fill="#45818e" d="m78.945 16.422573l0 0c0 -6.41868 5.2738724 -11.622048 11.779526 -11.622048l0 0c3.1241226 0 6.1202927 1.2244625 8.329384 3.4040194c2.2090912 2.179556 3.450142 5.1356697 3.450142 8.218029l0 0c0 6.4186783 -5.2738724 11.6220455 -11.779526 11.6220455l0 0c-6.5056534 0 -11.779526 -5.203367 -11.779526 -11.6220455z" fill-rule="evenodd"/></g><g filter="url(#shadowFilter-g280fde26209_1_24.12)"><use xlink:href="#g280fde26209_1_24.12" transform="matrix(1.0 0.0 0.0 1.0 4.330127034120733 2.5)"/></g><defs><filter id="shadowFilter-g280fde26209_1_24.12" filterUnits="userSpaceOnUse"><feGaussianBlur in="SourceAlpha" stdDeviation="2.5" result="blur"/><feComponentTransfer in="blur" color-interpolation-filters="sRGB"><feFuncR type="linear" slope="0" intercept="0.27058825"/><feFuncG type="linear" slope="0" intercept="0.5058824"/><feFuncB type="linear" slope="0" intercept="0.5568628"/><feFuncA type="linear" slope="0.3" intercept="0"/></feComponentTransfer></filter></defs><g id="g280fde26209_1_24.12"><path fill="#45818e" d="m78.945 39.774525l0 0c0 -6.4186783 5.2738724 -11.622047 11.779526 -11.622047l0 0c3.1241226 0 6.1202927 1.2244625 8.329384 3.4040203c2.2090912 2.179556 3.450142 5.135668 3.450142 8.218027l0 0c0 6.418682 -5.2738724 11.622047 -11.779526 11.622047l0 0c-6.5056534 0 -11.779526 -5.2033653 -11.779526 -11.622047z" fill-rule="evenodd"/></g><g filter="url(#shadowFilter-g280fde26209_1_24.13)"><use xlink:href="#g280fde26209_1_24.13" transform="matrix(1.0 0.0 0.0 1.0 1.9850923884514438 0.24373858267716159)"/></g><defs><filter id="shadowFilter-g280fde26209_1_24.13" filterUnits="userSpaceOnUse"><feGaussianBlur in="SourceAlpha" stdDeviation="2.0" result="blur"/><feComponentTransfer in="blur" color-interpolation-filters="sRGB"><feFuncR type="linear" slope="0" intercept="0.043137256"/><feFuncG type="linear" slope="0" intercept="0.3254902"/><feFuncB type="linear" slope="0" intercept="0.5803922"/><feFuncA type="linear" slope="0.21" intercept="0"/></feComponentTransfer></filter></defs><g id="g280fde26209_1_24.13"><path fill="#ff9900" d="m32.422073 94.94008l19.874016 0l0 6.3936996l-19.874016 0z" fill-rule="evenodd"/></g><g filter="url(#shadowFilter-g280fde26209_1_24.14)"><use xlink:href="#g280fde26209_1_24.14" transform="matrix(1.0 0.0 0.0 1.0 1.985092388451439 0.24373858267716159)"/></g><defs><filter id="shadowFilter-g280fde26209_1_24.14" filterUnits="userSpaceOnUse"><feGaussianBlur in="SourceAlpha" stdDeviation="2.0" result="blur"/><feComponentTransfer in="blur" color-interpolation-filters="sRGB"><feFuncR type="linear" slope="0" intercept="0.043137256"/><feFuncG type="linear" slope="0" intercept="0.3254902"/><feFuncB type="linear" slope="0" intercept="0.5803922"/><feFuncA type="linear" slope="0.21" intercept="0"/></feComponentTransfer></filter></defs><g id="g280fde26209_1_24.14"><path fill="#ff00ff" d="m56.42379 95.27603l19.685036 0l0 6.6456757l-19.685036 0z" fill-rule="evenodd"/></g><g filter="url(#shadowFilter-g280fde26209_1_24.15)"><use xlink:href="#g280fde26209_1_24.15" transform="matrix(1.0 0.0 0.0 1.0 4.330127034120743 2.5)"/></g><defs><filter id="shadowFilter-g280fde26209_1_24.15" filterUnits="userSpaceOnUse"><feGaussianBlur in="SourceAlpha" stdDeviation="2.5" result="blur"/><feComponentTransfer in="blur" color-interpolation-filters="sRGB"><feFuncR type="linear" slope="0" intercept="0.0"/><feFuncG type="linear" slope="0" intercept="0.0"/><feFuncB type="linear" slope="0" intercept="0.0"/><feFuncA type="linear" slope="0.3" intercept="0"/></feComponentTransfer></filter></defs><g id="g280fde26209_1_24.15"><path fill="#000000" fill-opacity="0.0" d="m105.34857 7.365241l309.98425 0l0 111.49606l-309.98425 0z" fill-rule="evenodd"/><path fill="#000000" d="m113.50482 111.59149q-0.875 0 -1.453125 -0.578125q-0.578125 -0.578125 -0.578125 -1.453125l0 -32.84375q0.125 -5.375 2.609375 -9.546875q2.484375 -4.1875 6.765625 -6.640625q4.28125 -2.453125 9.59375 -2.453125q5.4375 0 9.75 2.484375q4.328125 2.484375 6.796875 6.8125q2.484375 4.3125 2.484375 9.75q0 5.375 -2.484375 9.6875q-2.46875 4.3125 -6.796875 6.796875q-4.3125 2.484375 -9.75 2.484375q-4.890625 0 -8.8125 -2.109375q-3.90625 -2.109375 -6.078125 -5.640625l0 21.21875q0 0.875 -0.546875 1.453125q-0.546875 0.578125 -1.5 0.578125zm16.9375 -19.3125q4.28125 0 7.640625 -2.0q3.375 -2.0 5.34375 -5.4375q1.96875 -3.4375 1.96875 -7.71875q0 -4.359375 -1.96875 -7.78125q-1.96875 -3.4375 -5.34375 -5.4375q-3.359375 -2.015625 -7.640625 -2.015625q-4.21875 0 -7.625 2.015625q-3.390625 2.0 -5.328125 5.4375q-1.9375 3.421875 -1.9375 7.78125q0 4.28125 1.9375 7.71875q1.9375 3.4375 5.328125 5.4375q3.40625 2.0 7.625 2.0zm46.2433 3.8125q-5.4375 0 -9.765625 -2.484375q-4.3125 -2.484375 -6.796875 -6.796875q-2.484375 -4.3125 -2.484375 -9.75q0 -5.453125 2.484375 -9.734375q2.484375 -4.28125 6.796875 -6.765625q4.328125 -2.484375 9.765625 -2.484375q4.890625 0 8.796875 2.109375q3.921875 2.109375 6.09375 5.640625l0 -21.203125q0 -0.953125 0.578125 -1.5q0.578125 -0.546875 1.453125 -0.546875q0.953125 0 1.5 0.546875q0.546875 0.546875 0.546875 1.5l0 32.84375q-0.0625 5.296875 -2.59375 9.515625q-2.515625 4.21875 -6.765625 6.671875q-4.25 2.4375 -9.609375 2.4375zm0 -3.8125q4.28125 0 7.640625 -2.0q3.375 -2.0 5.3125 -5.4375q1.9375 -3.4375 1.9375 -7.78125q0 -4.359375 -1.9375 -7.75q-1.9375 -3.40625 -5.3125 -5.40625q-3.359375 -2.015625 -7.640625 -2.015625q-4.21875 0 -7.625 2.015625q-3.390625 2.0 -5.375 5.40625q-1.96875 3.390625 -1.96875 7.75q0 4.34375 1.96875 7.78125q1.984375 3.4375 5.375 5.4375q3.40625 2.0 7.625 2.0zm50.1808 3.8125q-5.3125 0 -9.59375 -2.4375q-4.28125 -2.453125 -6.765625 -6.671875q-2.484375 -4.21875 -2.609375 -9.515625l0 -32.84375q0 -0.953125 0.578125 -1.5q0.578125 -0.546875 1.453125 -0.546875q0.953125 0 1.5 0.546875q0.546875 0.546875 0.546875 1.5l0 21.203125q2.171875 -3.53125 6.078125 -5.640625q3.921875 -2.109375 8.8125 -2.109375q5.4375 0 9.75 2.484375q4.328125 2.484375 6.796875 6.765625q2.484375 4.28125 2.484375 9.734375q0 5.4375 -2.484375 9.75q-2.46875 4.3125 -6.796875 6.796875q-4.3125 2.484375 -9.75 2.484375zm0 -3.8125q4.28125 0 7.640625 -2.0q3.375 -2.0 5.34375 -5.4375q1.96875 -3.4375 1.96875 -7.78125q0 -4.359375 -1.96875 -7.75q-1.96875 -3.40625 -5.34375 -5.40625q-3.359375 -2.015625 -7.640625 -2.015625q-4.21875 0 -7.625 2.015625q-3.390625 2.0 -5.328125 5.40625q-1.9375 3.390625 -1.9375 7.75q0 4.34375 1.9375 7.78125q1.9375 3.4375 5.328125 5.4375q3.40625 2.0 7.625 2.0z" fill-rule="nonzero"/><path fill="#000000" d="m293.5941 95.68524q-0.921875 0 -1.75 -0.265625q-0.828125 -0.28125 -1.5625 -1.203125l-16.09375 -19.328125l-3.3125 -3.3125l-16.01561 -18.953125q-1.1875 -1.46875 -1.28125 -3.171875q-0.09375 -1.703125 0.90625 -2.890625q1.015625 -1.203125 3.0468597 -1.203125q2.203125 0 3.5 1.5625l15.71875 18.78125l2.390625 2.203125l17.296875 20.703125q1.390625 1.65625 1.34375 3.265625q-0.046875 1.609375 -1.203125 2.71875q-1.140625 1.09375 -2.984375 1.09375zm-35.140625 0q-1.84375 0 -2.9062347 -1.140625q-1.046875 -1.15625 -1.046875 -2.8125q0 -1.65625 1.28125 -3.3125l15.64061 -19.59375l4.96875 6.984375l-14.625 18.40625q-1.390625 1.46875 -3.3125 1.46875zm22.71875 -23.640625l-6.34375 -5.4375l14.8125 -19.6875q0.734375 -0.921875 1.5625 -1.234375q0.828125 -0.328125 1.84375 -0.328125q2.015625 0 3.03125 1.25q1.015625 1.234375 0.96875 2.984375q-0.046875 1.75 -1.34375 3.40625l-14.53125 19.046875z" fill-rule="nonzero"/><path fill="#000000" d="m308.43185 95.68524q-0.875 0 -1.5 -0.578125q-0.609375 -0.578125 -0.609375 -1.46875q0 -0.8125 0.625 -1.484375l21.484375 -25.578125q1.421875 -1.484375 2.40625 -3.828125q0.984375 -2.359375 0.984375 -4.390625q0 -3.328125 -1.46875 -5.984375q-1.453125 -2.65625 -3.9375 -4.1875q-2.46875 -1.53125 -5.609375 -1.53125q-3.125 0 -5.609375 1.53125q-2.484375 1.53125 -3.953125 4.1875q-1.453125 2.65625 -1.453125 5.984375q0 0.875 -0.578125 1.453125q-0.578125 0.578125 -1.453125 0.578125q-0.890625 0 -1.5 -0.578125q-0.609375 -0.578125 -0.609375 -1.453125q0 -4.5625 2.0 -8.125q2.015625 -3.578125 5.4375 -5.640625q3.4375 -2.078125 7.71875 -2.078125q4.359375 0 7.75 2.078125q3.40625 2.0625 5.40625 5.640625q2.015625 3.5625 2.015625 8.125q0 2.171875 -0.609375 4.109375q-0.609375 1.9375 -1.703125 3.671875q-1.09375 1.734375 -2.515625 3.4375l-18.703125 21.96875l22.84375 0q0.890625 0 1.46875 0.609375q0.578125 0.609375 0.578125 1.484375q0 0.890625 -0.578125 1.46875q-0.578125 0.578125 -1.46875 0.578125l-26.859375 0zm52.369904 0.40625q-5.4375 0 -9.765625 -2.484375q-4.3125 -2.484375 -6.796875 -6.796875q-2.484375 -4.3125 -2.484375 -9.75q0 -5.453125 2.484375 -9.734375q2.484375 -4.28125 6.796875 -6.765625q4.328125 -2.484375 9.765625 -2.484375q4.890625 0 8.796875 2.109375q3.921875 2.109375 6.09375 5.640625l0 -21.203125q0 -0.953125 0.578125 -1.5q0.578125 -0.546875 1.453125 -0.546875q0.953125 0 1.5 0.546875q0.546875 0.546875 0.546875 1.5l0 32.84375q-0.0625 5.296875 -2.59375 9.515625q-2.515625 4.21875 -6.765625 6.671875q-4.25 2.4375 -9.609375 2.4375zm0 -3.8125q4.28125 0 7.640625 -2.0q3.375 -2.0 5.3125 -5.4375q1.9375 -3.4375 1.9375 -7.78125q0 -4.359375 -1.9375 -7.75q-1.9375 -3.40625 -5.3125 -5.40625q-3.359375 -2.015625 -7.640625 -2.015625q-4.21875 0 -7.625 2.015625q-3.390625 2.0 -5.375 5.40625q-1.96875 3.390625 -1.96875 7.75q0 4.34375 1.96875 7.78125q1.984375 3.4375 5.375 5.4375q3.40625 2.0 7.625 2.0zm36.305817 3.40625q-0.875 0 -1.453125 -0.578125q-0.578125 -0.578125 -0.578125 -1.46875l0 -35.21875q0 -4.625 1.421875 -8.1875q1.421875 -3.578125 4.453125 -5.609375q3.03125 -2.046875 7.71875 -2.046875q0.953125 0 1.484375 0.515625q0.546875 0.5 0.546875 1.328125q0 0.8125 -0.546875 1.328125q-0.53125 0.5 -1.484375 0.5q-3.46875 0 -5.546875 1.609375q-2.078125 1.59375 -3.0 4.34375q-0.90625 2.75 -0.90625 6.21875l0 35.21875q0 0.890625 -0.578125 1.46875q-0.578125 0.578125 -1.53125 0.578125zm-7.34375 -32.15625q-0.8125 0 -1.328125 -0.515625q-0.5 -0.515625 -0.5 -1.328125q0 -0.8125 0.5 -1.328125q0.515625 -0.515625 1.328125 -0.515625l18.421875 0q0.828125 0 1.328125 0.515625q0.515625 0.515625 0.515625 1.328125q0 0.8125 -0.515625 1.328125q-0.5 0.515625 -1.328125 0.515625l-18.421875 0z" fill-rule="nonzero"/></g></g></svg>