<svg version="1.1" viewBox="0.0 0.0 268.8005249343832 140.16010498687663" fill="none" stroke="none" stroke-linecap="square" stroke-miterlimit="10" xmlns:xlink="http://www.w3.org/1999/xlink" xmlns="http://www.w3.org/2000/svg"><clipPath id="g280fde26209_1_24.0"><path d="m0 0l268.80054 0l0 140.16011l-268.80054 0l0 -140.16011z" clip-rule="nonzero"/></clipPath><g clip-path="url(#g280fde26209_1_24.0)"><path fill="#000000" fill-opacity="0.0" d="m0 0l268.80054 0l0 140.16011l-268.80054 0z" fill-rule="evenodd"/><g filter="url(#shadowFilter-g280fde26209_1_24.1)"><use xlink:href="#g280fde26209_1_24.1" transform="matrix(1.0 0.0 0.0 1.0 4.330127034120736 2.5)"/></g><defs><filter id="shadowFilter-g280fde26209_1_24.1" filterUnits="userSpaceOnUse"><feGaussianBlur in="SourceAlpha" stdDeviation="2.5" result="blur"/><feComponentTransfer in="blur" color-interpolation-filters="sRGB"><feFuncR type="linear" slope="0" intercept="0.6"/><feFuncG type="linear" slope="0" intercept="0.6"/><feFuncB type="linear" slope="0" intercept="0.6"/><feFuncA type="linear" slope="0.3" intercept="0"/></feComponentTransfer></filter></defs><g id="g280fde26209_1_24.1"><path fill="#999999" d="m3.6196232 100.2889l0 0c0 -1.8119965 1.4689112 -3.2809067 3.2809052 -3.2809067l13.123228 0l0 0c0.8701515 0 1.7046623 0.34566498 2.319952 0.9609604c0.6152878 0.6152878 0.96095467 1.4497986 0.96095467 2.3199463l0 31.831886c0 1.8119965 -1.4689121 3.2809143 -3.2809067 3.2809143l-13.123228 0c-1.8119941 0 -3.2809052 -1.4689178 -3.2809052 -3.2809143z" fill-rule="evenodd"/></g><g filter="url(#shadowFilter-g280fde26209_1_24.2)"><use xlink:href="#g280fde26209_1_24.2" transform="matrix(1.0 0.0 0.0 1.0 4.330127034120733 2.5)"/></g><defs><filter id="shadowFilter-g280fde26209_1_24.2" filterUnits="userSpaceOnUse"><feGaussianBlur in="SourceAlpha" stdDeviation="2.5" result="blur"/><feComponentTransfer in="blur" color-interpolation-filters="sRGB"><feFuncR type="linear" slope="0" intercept="0.6"/><feFuncG type="linear" slope="0" intercept="0.6"/><feFuncB type="linear" slope="0" intercept="0.6"/><feFuncA type="linear" slope="0.3" intercept="0"/></feComponentTransfer></filter></defs><g id="g280fde26209_1_24.2"><path fill="#999999" d="m75.60665 100.2889l0 0c0 -1.8119965 1.4689102 -3.2809067 3.2809067 -3.2809067l13.12323 0l0 0c0.8701477 0 1.7046585 0.34566498 2.3199463 0.9609604c0.6152954 0.6152878 0.9609604 1.4497986 0.9609604 2.3199463l0 31.831886c0 1.8119965 -1.4689102 3.2809143 -3.2809067 3.2809143l-13.12323 0c-1.8119965 0 -3.2809067 -1.4689178 -3.2809067 -3.2809143z" fill-rule="evenodd"/></g><g filter="url(#shadowFilter-g280fde26209_1_24.3)"><use xlink:href="#g280fde26209_1_24.3" transform="matrix(1.0 0.0 0.0 1.0 4.330127034120733 2.5)"/></g><defs><filter id="shadowFilter-g280fde26209_1_24.3" filterUnits="userSpaceOnUse"><feGaussianBlur in="SourceAlpha" stdDeviation="2.5" result="blur"/><feComponentTransfer in="blur" color-interpolation-filters="sRGB"><feFuncR type="linear" slope="0" intercept="0.6"/><feFuncG type="linear" slope="0" intercept="0.6"/><feFuncB type="linear" slope="0" intercept="0.6"/><feFuncA type="linear" slope="0.3" intercept="0"/></feComponentTransfer></filter></defs><g id="g280fde26209_1_24.3"><path fill="#999999" d="m27.235716 82.1971l0 0c0 -1.8119965 1.4689121 -3.2809067 3.2809067 -3.2809067l13.123228 0l0 0c0.8701515 0 1.7046623 0.34566498 2.31995 0.96095276c0.6152878 0.6152954 0.9609566 1.4498062 0.9609566 2.319954l0 31.800392c0 1.8119965 -1.468914 3.2809067 -3.2809067 3.2809067l-13.123228 0c-1.8119946 0 -3.2809067 -1.4689102 -3.2809067 -3.2809067z" fill-rule="evenodd"/></g><g filter="url(#shadowFilter-g280fde26209_1_24.4)"><use xlink:href="#g280fde26209_1_24.4" transform="matrix(1.0 0.0 0.0 1.0 4.330127034120733 2.5)"/></g><defs><filter id="shadowFilter-g280fde26209_1_24.4" filterUnits="userSpaceOnUse"><feGaussianBlur in="SourceAlpha" stdDeviation="2.5" result="blur"/><feComponentTransfer in="blur" color-interpolation-filters="sRGB"><feFuncR type="linear" slope="0" intercept="0.6"/><feFuncG type="linear" slope="0" intercept="0.6"/><feFuncB type="linear" slope="0" intercept="0.6"/><feFuncA type="linear" slope="0.3" intercept="0"/></feComponentTransfer></filter></defs><g id="g280fde26209_1_24.4"><path fill="#999999" d="m51.142967 82.1971l0 0c0 -1.8119965 1.4689102 -3.2809067 3.2809067 -3.2809067l13.12323 0l0 0c0.8701477 0 1.7046585 0.34566498 2.3199463 0.96095276c0.6152878 0.6152954 0.9609604 1.4498062 0.9609604 2.319954l0 31.800392c0 1.8119965 -1.4689178 3.2809067 -3.2809067 3.2809067l-13.12323 0c-1.8119965 0 -3.2809067 -1.4689102 -3.2809067 -3.2809067z" fill-rule="evenodd"/></g><g filter="url(#shadowFilter-g280fde26209_1_24.5)"><use xlink:href="#g280fde26209_1_24.5" transform="matrix(1.0 0.0 0.0 1.0 4.330127034120736 2.5)"/></g><defs><filter id="shadowFilter-g280fde26209_1_24.5" filterUnits="userSpaceOnUse"><feGaussianBlur in="SourceAlpha" stdDeviation="2.5" result="blur"/><feComponentTransfer in="blur" color-interpolation-filters="sRGB"><feFuncR type="linear" slope="0" intercept="0.27058825"/><feFuncG type="linear" slope="0" intercept="0.5058824"/><feFuncB type="linear" slope="0" intercept="0.5568628"/><feFuncA type="linear" slope="0.3" intercept="0"/></feComponentTransfer></filter></defs><g id="g280fde26209_1_24.5"><path fill="#45818e" d="m1.4404725 16.383202l0 0c0 -6.418679 5.273874 -11.622047 11.779528 -11.622047l0 0c3.1241255 0 6.1202936 1.2244625 8.329383 3.4040189c2.2090912 2.1795568 3.4501438 5.1356697 3.4501438 8.218028l0 0c0 6.41868 -5.2738743 11.622047 -11.779527 11.622047l0 0c-6.505654 0 -11.779528 -5.203367 -11.779528 -11.622047z" fill-rule="evenodd"/></g><g filter="url(#shadowFilter-g280fde26209_1_24.6)"><use xlink:href="#g280fde26209_1_24.6" transform="matrix(1.0 0.0 0.0 1.0 4.330127034120736 2.5)"/></g><defs><filter id="shadowFilter-g280fde26209_1_24.6" filterUnits="userSpaceOnUse"><feGaussianBlur in="SourceAlpha" stdDeviation="2.5" result="blur"/><feComponentTransfer in="blur" color-interpolation-filters="sRGB"><feFuncR type="linear" slope="0" intercept="0.27058825"/><feFuncG type="linear" slope="0" intercept="0.5058824"/><feFuncB type="linear" slope="0" intercept="0.5568628"/><feFuncA type="linear" slope="0.3" intercept="0"/></feComponentTransfer></filter></defs><g id="g280fde26209_1_24.6"><path fill="#45818e" d="m1.4404725 39.723354l0 0c0 -6.418682 5.273874 -11.622047 11.779528 -11.622047l0 0c3.1241255 0 6.1202936 1.2244606 8.329383 3.4040184c2.2090912 2.1795578 3.4501438 5.1356697 3.4501438 8.218029l0 0c0 6.4186783 -5.2738743 11.622047 -11.779527 11.622047l0 0c-6.505654 0 -11.779528 -5.203369 -11.779528 -11.622047z" fill-rule="evenodd"/></g><g filter="url(#shadowFilter-g280fde26209_1_24.7)"><use xlink:href="#g280fde26209_1_24.7" transform="matrix(1.0 0.0 0.0 1.0 4.330127034120733 2.5)"/></g><defs><filter id="shadowFilter-g280fde26209_1_24.7" filterUnits="userSpaceOnUse"><feGaussianBlur in="SourceAlpha" stdDeviation="2.5" result="blur"/><feComponentTransfer in="blur" color-interpolation-filters="sRGB"><feFuncR type="linear" slope="0" intercept="0.27058825"/><feFuncG type="linear" slope="0" intercept="0.5058824"/><feFuncB type="linear" slope="0" intercept="0.5568628"/><feFuncA type="linear" slope="0.3" intercept="0"/></feComponentTransfer></filter></defs><g id="g280fde26209_1_24.7"><path fill="#45818e" d="m25.515282 39.723164l0 0c0 -6.4186783 5.2738743 -11.622047 11.779526 -11.622047l0 0c3.1241264 0 6.1202965 1.2244625 8.329384 3.4040203c2.2090912 2.179556 3.4501457 5.135668 3.4501457 8.218027l0 0c0 6.4186783 -5.273876 11.622047 -11.77953 11.622047l0 0c-6.5056515 0 -11.779526 -5.203369 -11.779526 -11.622047z" fill-rule="evenodd"/></g><g filter="url(#shadowFilter-g280fde26209_1_24.8)"><use xlink:href="#g280fde26209_1_24.8" transform="matrix(1.0 0.0 0.0 1.0 4.330127034120733 2.5)"/></g><defs><filter id="shadowFilter-g280fde26209_1_24.8" filterUnits="userSpaceOnUse"><feGaussianBlur in="SourceAlpha" stdDeviation="2.5" result="blur"/><feComponentTransfer in="blur" color-interpolation-filters="sRGB"><feFuncR type="linear" slope="0" intercept="0.27058825"/><feFuncG type="linear" slope="0" intercept="0.5058824"/><feFuncB type="linear" slope="0" intercept="0.5568628"/><feFuncA type="linear" slope="0.3" intercept="0"/></feComponentTransfer></filter></defs><g id="g280fde26209_1_24.8"><path fill="#45818e" d="m49.591465 63.07493l0 0c0 -6.4186783 5.273876 -11.622047 11.77953 -11.622047l0 0c3.1241226 0 6.1202927 1.2244644 8.329384 3.4040184c2.2090912 2.1795578 3.450142 5.1356697 3.450142 8.218029l0 0c0 6.4186783 -5.2738724 11.622047 -11.779526 11.622047l0 0c-6.5056534 0 -11.77953 -5.203369 -11.77953 -11.622047z" fill-rule="evenodd"/></g><g filter="url(#shadowFilter-g280fde26209_1_24.9)"><use xlink:href="#g280fde26209_1_24.9" transform="matrix(1.0 0.0 0.0 1.0 4.330127034120733 2.5)"/></g><defs><filter id="shadowFilter-g280fde26209_1_24.9" filterUnits="userSpaceOnUse"><feGaussianBlur in="SourceAlpha" stdDeviation="2.5" result="blur"/><feComponentTransfer in="blur" color-interpolation-filters="sRGB"><feFuncR type="linear" slope="0" intercept="0.27058825"/><feFuncG type="linear" slope="0" intercept="0.5058824"/><feFuncB type="linear" slope="0" intercept="0.5568628"/><feFuncA type="linear" slope="0.3" intercept="0"/></feComponentTransfer></filter></defs><g id="g280fde26209_1_24.9"><path fill="#45818e" d="m49.59161 39.723164l0 0c0 -6.4186783 5.2738724 -11.622047 11.779526 -11.622047l0 0c3.1241264 0 6.1202965 1.2244625 8.329388 3.4040203c2.2090836 2.179556 3.450142 5.135668 3.450142 8.218027l0 0c0 6.4186783 -5.2738724 11.622047 -11.77953 11.622047l0 0c-6.5056534 0 -11.779526 -5.203369 -11.779526 -11.622047z" fill-rule="evenodd"/></g><g filter="url(#shadowFilter-g280fde26209_1_24.10)"><use xlink:href="#g280fde26209_1_24.10" transform="matrix(1.0 0.0 0.0 1.0 4.330127034120733 2.5)"/></g><defs><filter id="shadowFilter-g280fde26209_1_24.10" filterUnits="userSpaceOnUse"><feGaussianBlur in="SourceAlpha" stdDeviation="2.5" result="blur"/><feComponentTransfer in="blur" color-interpolation-filters="sRGB"><feFuncR type="linear" slope="0" intercept="0.27058825"/><feFuncG type="linear" slope="0" intercept="0.5058824"/><feFuncB type="linear" slope="0" intercept="0.5568628"/><feFuncA type="linear" slope="0.3" intercept="0"/></feComponentTransfer></filter></defs><g id="g280fde26209_1_24.10"><path fill="#45818e" d="m25.515423 63.07493l0 0c0 -6.4186783 5.2738743 -11.622047 11.77953 -11.622047l0 0c3.1241226 0 6.1202927 1.2244644 8.329384 3.4040184c2.2090874 2.1795578 3.450142 5.1356697 3.450142 8.218029l0 0c0 6.4186783 -5.2738724 11.622047 -11.779526 11.622047l0 0c-6.5056553 0 -11.77953 -5.203369 -11.77953 -11.622047z" fill-rule="evenodd"/></g><g filter="url(#shadowFilter-g280fde26209_1_24.11)"><use xlink:href="#g280fde26209_1_24.11" transform="matrix(1.0 0.0 0.0 1.0 4.330127034120733 2.5)"/></g><defs><filter id="shadowFilter-g280fde26209_1_24.11" filterUnits="userSpaceOnUse"><feGaussianBlur in="SourceAlpha" stdDeviation="2.5" result="blur"/><feComponentTransfer in="blur" color-interpolation-filters="sRGB"><feFuncR type="linear" slope="0" intercept="0.27058825"/><feFuncG type="linear" slope="0" intercept="0.5058824"/><feFuncB type="linear" slope="0" intercept="0.5568628"/><feFuncA type="linear" slope="0.3" intercept="0"/></feComponentTransfer></filter></defs><g id="g280fde26209_1_24.11"><path fill="#45818e" d="m73.66547 16.383202l0 0c0 -6.418679 5.27388 -11.622047 11.779533 -11.622047l0 0c3.1241226 0 6.1202927 1.2244625 8.329384 3.4040189c2.2090836 2.1795568 3.450142 5.1356697 3.450142 8.218028l0 0c0 6.41868 -5.2738724 11.622047 -11.779526 11.622047l0 0c-6.5056534 0 -11.779533 -5.203367 -11.779533 -11.622047z" fill-rule="evenodd"/></g><g filter="url(#shadowFilter-g280fde26209_1_24.12)"><use xlink:href="#g280fde26209_1_24.12" transform="matrix(1.0 0.0 0.0 1.0 4.330127034120733 2.5)"/></g><defs><filter id="shadowFilter-g280fde26209_1_24.12" filterUnits="userSpaceOnUse"><feGaussianBlur in="SourceAlpha" stdDeviation="2.5" result="blur"/><feComponentTransfer in="blur" color-interpolation-filters="sRGB"><feFuncR type="linear" slope="0" intercept="0.27058825"/><feFuncG type="linear" slope="0" intercept="0.5058824"/><feFuncB type="linear" slope="0" intercept="0.5568628"/><feFuncA type="linear" slope="0.3" intercept="0"/></feComponentTransfer></filter></defs><g id="g280fde26209_1_24.12"><path fill="#45818e" d="m73.66547 39.735157l0 0c0 -6.418682 5.27388 -11.622049 11.779533 -11.622049l0 0c3.1241226 0 6.1202927 1.2244625 8.329384 3.4040184c2.2090836 2.179556 3.450142 5.1356716 3.450142 8.218031l0 0c0 6.4186783 -5.2738724 11.622047 -11.779526 11.622047l0 0c-6.5056534 0 -11.779533 -5.203369 -11.779533 -11.622047z" fill-rule="evenodd"/></g><g filter="url(#shadowFilter-g280fde26209_1_24.13)"><use xlink:href="#g280fde26209_1_24.13" transform="matrix(1.0 0.0 0.0 1.0 1.9850923884514438 0.24373858267716159)"/></g><defs><filter id="shadowFilter-g280fde26209_1_24.13" filterUnits="userSpaceOnUse"><feGaussianBlur in="SourceAlpha" stdDeviation="2.0" result="blur"/><feComponentTransfer in="blur" color-interpolation-filters="sRGB"><feFuncR type="linear" slope="0" intercept="0.043137256"/><feFuncG type="linear" slope="0" intercept="0.3254902"/><feFuncB type="linear" slope="0" intercept="0.5803922"/><feFuncA type="linear" slope="0.21" intercept="0"/></feComponentTransfer></filter></defs><g id="g280fde26209_1_24.13"><path fill="#ff9900" d="m27.142546 94.90071l19.874018 0l0 6.3936996l-19.874018 0z" fill-rule="evenodd"/></g><g filter="url(#shadowFilter-g280fde26209_1_24.14)"><use xlink:href="#g280fde26209_1_24.14" transform="matrix(1.0 0.0 0.0 1.0 1.985092388451439 0.24373858267716159)"/></g><defs><filter id="shadowFilter-g280fde26209_1_24.14" filterUnits="userSpaceOnUse"><feGaussianBlur in="SourceAlpha" stdDeviation="2.0" result="blur"/><feComponentTransfer in="blur" color-interpolation-filters="sRGB"><feFuncR type="linear" slope="0" intercept="0.043137256"/><feFuncG type="linear" slope="0" intercept="0.3254902"/><feFuncB type="linear" slope="0" intercept="0.5803922"/><feFuncA type="linear" slope="0.21" intercept="0"/></feComponentTransfer></filter></defs><g id="g280fde26209_1_24.14"><path fill="#ff00ff" d="m51.14426 95.236664l19.68504 0l0 6.645668l-19.68504 0z" fill-rule="evenodd"/></g><g filter="url(#shadowFilter-g280fde26209_1_24.15)"><use xlink:href="#g280fde26209_1_24.15" transform="matrix(1.0 0.0 0.0 1.0 4.330127034120743 2.5)"/></g><defs><filter id="shadowFilter-g280fde26209_1_24.15" filterUnits="userSpaceOnUse"><feGaussianBlur in="SourceAlpha" stdDeviation="2.5" result="blur"/><feComponentTransfer in="blur" color-interpolation-filters="sRGB"><feFuncR type="linear" slope="0" intercept="0.0"/><feFuncG type="linear" slope="0" intercept="0.0"/><feFuncB type="linear" slope="0" intercept="0.0"/><feFuncA type="linear" slope="0.3" intercept="0"/></feComponentTransfer></filter></defs><g id="g280fde26209_1_24.15"><path fill="#000000" fill-opacity="0.0" d="m99.31196 45.834644l166.23624 0l0 58.17323l-166.23624 0z" fill-rule="evenodd"/><path fill="#999999" d="m194.64015 45.834644l66.38414 0l0 57.600002l-66.38414 0l0 -57.600002z" fill-rule="nonzero"/><path fill="#45818e" d="m106.99946 59.852142l-5.1875 -0.625l0 -2.984375l14.96875 0l5.71875 20.640625l1.34375 5.625l1.15625 -5.625l5.6562424 -20.640625l14.828125 0l0 2.984375l-5.234375 0.625l3.84375 28.65625l3.890625 0.53125l0 2.875l-15.3125 0l0 -2.875l4.21875 -0.484375l-2.109375 -21.03125l-0.90625 -8.78125l-1.78125 7.390625l-6.9531174 24.296875l-5.09375 0l-7.109375 -23.046875l-2.4375 -8.640625l-0.71875 8.78125l-1.828125 21.03125l4.84375 0.484375l0 2.875l-13.34375 0l0 -2.875l4.03125 -0.484375l3.515625 -28.703125zm43.284843 18.765625q0 -4.515625 1.796875 -7.671875q1.8125 -3.171875 4.828125 -4.78125q3.03125 -1.609375 6.578125 -1.609375q6.046875 0 9.328125 3.71875q3.296875 3.71875 3.296875 10.109375q0 4.5625 -1.796875 7.75q-1.796875 3.1875 -4.796875 4.75q-3.0 1.5625 -6.609375 1.5625q-6.0 0 -9.3125 -3.71875q-3.3125 -3.71875 -3.3125 -10.109375zm13.015625 10.703125q5.421875 0 5.421875 -10.46875q0 -5.46875 -1.296875 -8.3125q-1.296875 -2.859375 -4.21875 -2.859375q-5.578125 0 -5.578125 10.453125q0 5.484375 1.359375 8.34375q1.375 2.84375 4.3125 2.84375zm19.957687 -32.5l-3.546875 -0.625l0 -2.578125l8.875 -1.0625l0.109375 0l1.28125 0.90625l0 35.1875l3.515625 0.390625l0 2.875l-13.59375 0l0 -2.875l3.359375 -0.4375l0 -31.78125z" fill-rule="nonzero"/><path fill="#010000" fill-opacity="0.0" d="m194.64015 44.68255l36.528076 0l0 60.33612l-36.528076 0l0 -60.33612z" fill-rule="nonzero"/><path fill="#ff9900" d="m200.2964 59.852142l-3.59375 -0.625l0 -2.984375l7.015625 0q1.578125 0 4.265625 -0.1875q0.625 -0.046875 1.890625 -0.09375q1.28125 -0.046875 2.28125 -0.046875q8.84375 0 13.234375 4.421875q4.390625 4.40625 4.390625 12.515625q0 5.671875 -2.1875 10.09375q-2.1875 4.40625 -6.21875 6.890625q-4.03125 2.46875 -9.40625 2.46875q-1.390625 0 -4.375 -0.203125q-2.78125 -0.1875 -3.78125 -0.1875l-7.296875 0l0 -2.875l3.78125 -0.484375l0 -28.703125zm6.96875 28.84375q1.625 0.4375 4.5625 0.4375q4.796875 -0.09375 7.53125 -3.859375q2.734375 -3.78125 2.734375 -11.3125q0 -7.15625 -2.6875 -11.0625q-2.6875 -3.90625 -8.34375 -3.90625q-1.203125 0 -2.28125 0.140625q-1.078125 0.140625 -1.515625 0.1875l0 29.375z" fill-rule="nonzero"/><path fill="#000000" fill-opacity="0.0" d="m231.16823 44.68255l29.856064 0l0 60.33612l-29.856064 0l0 -60.33612z" fill-rule="nonzero"/><path fill="#ff00ff" d="m236.82448 59.852142l-3.921875 -0.625l0 -2.984375l26.48439 0l0.484375 8.703125l-3.84375 0l-1.7656403 -5.28125l-10.375 -0.53125l0 13.578125l7.15625 -0.140625l0.90625 -4.21875l3.078125 0l0 12.1875l-3.03125 0l-0.953125 -4.328125l-7.15625 -0.1875l0 12.53125l7.34375 0.484375l0 2.875l-18.09375 0l0 -2.875l3.6875 -0.484375l0 -28.703125z" fill-rule="nonzero"/><path fill="#000000" fill-opacity="0.0" d="m261.0243 44.68255l0 0l0 60.33612l0 0l0 -60.33612z" fill-rule="nonzero"/></g></g></svg>